<?xml version="1.0" standalone="no"?>
<svg xmlns:xlink="http://www.w3.org/1999/xlink" id="wave" style="transform:rotate(0deg); transition: 0.3s" viewBox="0 0 1440 490" version="1.1" xmlns="http://www.w3.org/2000/svg"><defs><linearGradient id="sw-gradient-0" x1="0" x2="0" y1="1" y2="0"><stop stop-color="rgba(0, 32, 67, 1)" offset="0%"/><stop stop-color="rgba(0, 32, 67, 1)" offset="100%"/></linearGradient></defs><path style="transform:translate(0, 0px); opacity:1" fill="url(#sw-gradient-0)" d="M0,98L48,98C96,98,192,98,288,138.8C384,180,480,261,576,269.5C672,278,768,212,864,228.7C960,245,1056,343,1152,367.5C1248,392,1344,343,1440,285.8C1536,229,1632,163,1728,179.7C1824,196,1920,294,2016,277.7C2112,261,2208,131,2304,138.8C2400,147,2496,294,2592,359.3C2688,425,2784,408,2880,367.5C2976,327,3072,261,3168,212.3C3264,163,3360,131,3456,114.3C3552,98,3648,98,3744,106.2C3840,114,3936,131,4032,171.5C4128,212,4224,278,4320,285.8C4416,294,4512,245,4608,228.7C4704,212,4800,229,4896,228.7C4992,229,5088,212,5184,196C5280,180,5376,163,5472,204.2C5568,245,5664,343,5760,375.7C5856,408,5952,376,6048,318.5C6144,261,6240,180,6336,163.3C6432,147,6528,196,6624,253.2C6720,310,6816,376,6864,408.3L6912,441L6912,490L6864,490C6816,490,6720,490,6624,490C6528,490,6432,490,6336,490C6240,490,6144,490,6048,490C5952,490,5856,490,5760,490C5664,490,5568,490,5472,490C5376,490,5280,490,5184,490C5088,490,4992,490,4896,490C4800,490,4704,490,4608,490C4512,490,4416,490,4320,490C4224,490,4128,490,4032,490C3936,490,3840,490,3744,490C3648,490,3552,490,3456,490C3360,490,3264,490,3168,490C3072,490,2976,490,2880,490C2784,490,2688,490,2592,490C2496,490,2400,490,2304,490C2208,490,2112,490,2016,490C1920,490,1824,490,1728,490C1632,490,1536,490,1440,490C1344,490,1248,490,1152,490C1056,490,960,490,864,490C768,490,672,490,576,490C480,490,384,490,288,490C192,490,96,490,48,490L0,490Z"/><defs><linearGradient id="sw-gradient-1" x1="0" x2="0" y1="1" y2="0"><stop stop-color="rgba(0, 32, 67, 1)" offset="0%"/><stop stop-color="rgba(0, 32, 67, 1)" offset="100%"/></linearGradient></defs><path style="transform:translate(0, 50px); opacity:0.9" fill="url(#sw-gradient-1)" d="M0,392L48,383.8C96,376,192,359,288,343C384,327,480,310,576,269.5C672,229,768,163,864,163.3C960,163,1056,229,1152,261.3C1248,294,1344,294,1440,261.3C1536,229,1632,163,1728,171.5C1824,180,1920,261,2016,318.5C2112,376,2208,408,2304,367.5C2400,327,2496,212,2592,147C2688,82,2784,65,2880,57.2C2976,49,3072,49,3168,106.2C3264,163,3360,278,3456,310.3C3552,343,3648,294,3744,277.7C3840,261,3936,278,4032,253.2C4128,229,4224,163,4320,171.5C4416,180,4512,261,4608,294C4704,327,4800,310,4896,318.5C4992,327,5088,359,5184,326.7C5280,294,5376,196,5472,179.7C5568,163,5664,229,5760,220.5C5856,212,5952,131,6048,89.8C6144,49,6240,49,6336,57.2C6432,65,6528,82,6624,98C6720,114,6816,131,6864,138.8L6912,147L6912,490L6864,490C6816,490,6720,490,6624,490C6528,490,6432,490,6336,490C6240,490,6144,490,6048,490C5952,490,5856,490,5760,490C5664,490,5568,490,5472,490C5376,490,5280,490,5184,490C5088,490,4992,490,4896,490C4800,490,4704,490,4608,490C4512,490,4416,490,4320,490C4224,490,4128,490,4032,490C3936,490,3840,490,3744,490C3648,490,3552,490,3456,490C3360,490,3264,490,3168,490C3072,490,2976,490,2880,490C2784,490,2688,490,2592,490C2496,490,2400,490,2304,490C2208,490,2112,490,2016,490C1920,490,1824,490,1728,490C1632,490,1536,490,1440,490C1344,490,1248,490,1152,490C1056,490,960,490,864,490C768,490,672,490,576,490C480,490,384,490,288,490C192,490,96,490,48,490L0,490Z"/></svg>